# xmcd CD database file
#
# Track frame offsets:
#	150
#	13833
#	31664
#	49027
#	64700
#	78082
#	91394
#	120488
#
# Disc length: 4440 seconds
#
# Revision: 0
# Processed by: cddbd v1.5.1PL2 Copyright (c) Steve Scherf et al.
# Submitted via: CDex 1.51
#
DISCID=54115608
DTITLE=HINOIチーム with コリッキー - STICKY TRICKY AND BANG
DYEAR=1900
DGENRE=Eurodance
TTITLE0=STICKY TRICKY AND BANG
TTITLE1=ON MY OWN(Special Version)
TTITLE2=NIGHT OF FIRE(DJ GUN MIX)
TTITLE3=YEAH!(コリッキー本気［マジ］Version)
TTITLE4=STICKY TRICKY AND BANG(HINOIチームVersion)
TTITLE5=STICKY TRICKY AND BANG(Instrumental)
TTITLE6=ON MY OWN(Special Version Instrumental)
TTITLE7=CCCD
EXTD=
EXTT0=
EXTT1=
EXTT2=
EXTT3=
EXTT4=
EXTT5=
EXTT6=
EXTT7=
PLAYORDER=
